<svg xmlns="http://www.w3.org/2000/svg" width="576" height="270" fill="none"><g clip-path="url(#a)"><rect width="575.02" height="270" fill="#A1AEE5" fill-opacity=".02" rx="22"/><g filter="url(#b)" opacity=".21" style="mix-blend-mode:screen"><path fill="url(#c)" d="M49.462-114.447A97.963 97.963 0 0 1 114.33-139h413.524c22.21 0 43.76 7.547 61.118 21.403l7.968 6.361c46.62 37.217 49.436 107.108 5.963 147.955l-12.464 11.71A97.965 97.965 0 0 1 523.357 75h-404.4a97.965 97.965 0 0 1-70.616-30.064l-11.52-11.982C-1.801-7.212.813-71.46 42.569-108.357l6.893-6.09z"/></g><g opacity=".7"><g filter="url(#d)"><circle cx="15.742" cy="144.301" r="59.867" fill="#F1F3FF" fill-opacity=".08"/></g><mask id="f" width="290" height="485" x="-129" y="-98" maskUnits="userSpaceOnUse" style="mask-type:alpha"><path fill="url(#e)" d="M160.484-98h485v289.484h-485z" transform="rotate(90 160.484 -98)"/></mask><g stroke="#fff" stroke-width=".505" mask="url(#f)"><path d="M155.685-35.607V4.304h-39.91v-39.91zm0 39.912v39.91h-39.911V4.306zm0 39.911v39.911h-39.91v-39.91zm0 39.912v39.91h-39.911v-39.91zm0 39.911v39.911h-39.911v-39.911zm0 39.912v39.911h-39.911v-39.911z"/><path fill="#fff" fill-opacity=".03" d="M155.685 203.862v39.911h-39.911v-39.911z"/><path d="M155.685 243.774v39.911h-39.911v-39.911zM115.773-35.607V4.304h-39.91v-39.91zm0 39.912v39.91H75.862V4.306zm0 39.911v39.911h-39.91v-39.91zm0 39.912v39.91H75.862v-39.91zm0 39.911v39.911H75.862v-39.911zm0 39.912v39.911H75.862v-39.911zm0 39.911v39.911H75.862v-39.911zm0 39.912v39.911H75.862v-39.911zM75.862-35.606v39.91H35.95v-39.91zm-.001 39.911v39.911h-39.91V4.305zm.001 39.911v39.911H35.95v-39.91zm-.001 39.912v39.911h-39.91V84.128z"/><path fill="#fff" fill-opacity=".03" d="M75.862 124.04v39.91H35.95v-39.91z"/><path d="M75.862 163.951v39.911H35.95v-39.91z"/><path fill="#fff" fill-opacity=".03" d="M75.862 203.862v39.911H35.95v-39.91z"/><path d="M75.862 243.774v39.911H35.95v-39.91zM35.95-35.607v39.91H-3.96v-39.91zm0 39.911v39.911H-3.96V4.305zm0 39.912v39.91H-3.96v-39.91zm0 39.911v39.911H-3.96v-39.91zm0 39.911v39.912H-3.96v-39.911zm0 39.912v39.911H-3.96v-39.91zm0 39.911v39.911H-3.96v-39.91zm0 39.912v39.911H-3.96v-39.91z"/></g></g><g opacity=".7"><g filter="url(#g)"><circle cx="545.742" cy="144.301" r="59.867" fill="#F1F3FF" fill-opacity=".08"/></g><mask id="i" width="290" height="485" x="401" y="-98" maskUnits="userSpaceOnUse" style="mask-type:alpha"><path fill="url(#h)" d="M690.484-98h485v289.484h-485z" transform="rotate(90 690.484 -98)"/></mask><g stroke="#fff" stroke-width=".505" mask="url(#i)"><path d="M605.862-35.607V4.304h-39.91v-39.91zm0 39.912v39.91H565.95V4.306zm0 39.911v39.911h-39.91v-39.91zm0 39.912v39.91H565.95v-39.91z"/><path fill="#fff" fill-opacity=".03" d="M605.862 124.039v39.911h-39.911v-39.911z"/><path d="M605.862 163.951v39.911h-39.911v-39.911z"/><path fill="#fff" fill-opacity=".03" d="M605.862 203.862v39.911h-39.911v-39.911z"/><path d="M605.862 243.774v39.911h-39.911v-39.911zM565.951-35.607V4.304h-39.91v-39.91zm-.001 39.912v39.91h-39.91V4.306zm.001 39.911v39.911h-39.91v-39.91zm-.001 39.912v39.91h-39.91v-39.91zm.001 39.911v39.911H526.04v-39.911zm0 39.912v39.911H526.04v-39.911zm0 39.911v39.911H526.04v-39.911zm0 39.912v39.911H526.04v-39.911zM526.04-35.607V4.304h-39.912v-39.91zm-.001 39.912v39.91h-39.911V4.306zm.001 39.911v39.911h-39.912v-39.91z"/><path fill="#fff" fill-opacity=".03" d="M526.039 84.128v39.91h-39.911v-39.91z"/><path d="M526.039 124.039v39.911h-39.911v-39.911zm0 39.912v39.911h-39.911v-39.911zm0 39.911v39.911h-39.911v-39.911zm0 39.912v39.911h-39.911v-39.911zM486.128-35.607V4.304h-39.91v-39.91zm0 39.912v39.91h-39.911V4.306zm0 39.911v39.911h-39.91v-39.91zm0 39.912v39.91h-39.911v-39.91zm0 39.911v39.911h-39.911v-39.911zm0 39.912v39.911h-39.911v-39.911zm0 39.911v39.911h-39.911v-39.911zm0 39.912v39.911h-39.911v-39.911zM446.216-35.607V4.304h-39.91v-39.91zm0 39.912v39.91h-39.911V4.306zm0 39.911v39.911h-39.91v-39.91zm0 39.912v39.91h-39.911v-39.91zm0 39.911v39.911h-39.911v-39.911zm0 39.912v39.911h-39.911v-39.911zm0 39.911v39.911h-39.911v-39.911zm0 39.912v39.911h-39.911v-39.911z"/></g></g><g opacity=".6" style="mix-blend-mode:screen"><g filter="url(#j)" opacity=".2"><path fill="url(#k)" d="m689.84-78.331 11.555 11.555-202.728 202.729-141.432 134.632 129.876-146.187L689.84-78.332z"/></g><g filter="url(#l)" opacity=".32"><path fill="url(#m)" d="m593.508-73.457 11.555 11.555-202.728 202.729-141.432 134.632 129.876-146.187 202.729-202.73z"/></g><g filter="url(#n)" opacity=".32"><path fill="url(#o)" d="m556.523-123.057 11.556 11.556L365.35 91.227 223.919 225.86 353.795 79.672l202.728-202.729z"/></g><g filter="url(#p)" opacity=".2"><path fill="url(#q)" d="m551.076-103.274 11.556 11.555L359.903 111.01 218.471 245.642 348.347 99.454l202.729-202.728z"/></g><g filter="url(#r)" opacity=".32"><path fill="url(#s)" d="M454.744-98.4 466.3-86.845 263.571 115.884 122.139 250.516l129.876-146.188L454.744-98.4z"/></g><g filter="url(#t)" opacity=".32"><path fill="url(#u)" d="m417.76-148 11.555 11.556L226.586 66.284 85.155 200.916 215.031 54.729 417.76-148z"/></g></g><g opacity=".6" style="mix-blend-mode:screen"><g filter="url(#v)" opacity=".32"><path fill="url(#w)" d="m903.508-73.457 11.555 11.555-202.728 202.729-141.432 134.632 129.876-146.187 202.729-202.73z"/></g><g filter="url(#x)" opacity=".32"><path fill="url(#y)" d="m866.523-123.057 11.556 11.556L675.35 91.227 533.919 225.86 663.795 79.672l202.728-202.729z"/></g><g filter="url(#z)" opacity=".2"><path fill="url(#A)" d="m861.076-103.274 11.556 11.555L669.903 111.01 528.471 245.642 658.347 99.454l202.729-202.728z"/></g><g filter="url(#B)" opacity=".32"><path fill="url(#C)" d="M764.744-98.4 776.3-86.845 573.571 115.884 432.139 250.516l129.876-146.188L764.744-98.4z"/></g><g filter="url(#D)" opacity=".32"><path fill="url(#E)" d="m727.76-148 11.555 11.556L536.586 66.284 395.155 200.916 525.031 54.729 727.76-148z"/></g></g><path fill="#A1AEE5" fill-opacity=".4" d="M2.292 254.145a.346.346 0 0 0-.463-.464.297.297 0 0 0-.147.148.345.345 0 0 0 .462.463.295.295 0 0 0 .148-.147zm191.783-11.477a.346.346 0 0 0-.463-.464.298.298 0 0 0-.147.148.345.345 0 0 0 .462.464.304.304 0 0 0 .148-.148zm-71.713-140.205a.345.345 0 0 0-.462-.464.3.3 0 0 0-.148.148.346.346 0 0 0 .463.464.298.298 0 0 0 .147-.148zm44.225-7.848a.344.344 0 0 0-.463-.463.295.295 0 0 0-.147.148c-.137.305.157.6.462.462a.301.301 0 0 0 .148-.147zm5.699 70.429a.346.346 0 0 0-.463-.464.29.29 0 0 0-.147.148.345.345 0 0 0 .462.463.298.298 0 0 0 .148-.147zM344.557 266.5a.346.346 0 0 0-.464-.464.298.298 0 0 0-.147.148.346.346 0 0 0 .463.464.296.296 0 0 0 .148-.148zm-92.349-26.527a.345.345 0 0 0-.463-.464.298.298 0 0 0-.147.148.346.346 0 0 0 .462.464.304.304 0 0 0 .148-.148z"/><path fill="#A1AEE5" fill-opacity=".8" d="M488.909 32.946a.345.345 0 0 0-.463-.464.3.3 0 0 0-.147.148.346.346 0 0 0 .462.464.297.297 0 0 0 .148-.148z"/><path fill="#A1AEE5" fill-opacity=".4" d="M83.764 64.268a.345.345 0 0 0-.462-.464.298.298 0 0 0-.148.148.346.346 0 0 0 .463.463.298.298 0 0 0 .147-.147z"/><path fill="#A1AEE5" fill-opacity=".8" d="M167.518 39.074a.346.346 0 0 0-.462-.464.301.301 0 0 0-.148.148.345.345 0 0 0 .463.464.295.295 0 0 0 .147-.148z"/><path fill="#A1AEE5" fill-opacity=".4" d="M11.329 203.275a.345.345 0 0 0-.463-.464.293.293 0 0 0-.147.148.345.345 0 0 0 .462.463.295.295 0 0 0 .148-.147zm5.707-79.086a.346.346 0 0 0-.464-.464.293.293 0 0 0-.148.148.346.346 0 0 0 .464.463.295.295 0 0 0 .148-.147zm-4.766 36.088a.346.346 0 0 0-.462-.464.3.3 0 0 0-.148.148.345.345 0 0 0 .463.464.3.3 0 0 0 .147-.148zm154.084 44.076a.346.346 0 0 0-.464-.464.3.3 0 0 0-.148.148.346.346 0 0 0 .464.463.298.298 0 0 0 .148-.147z"/><path fill="#A1AEE5" fill-opacity=".8" d="M143.469 177.047a.346.346 0 0 0-.464-.464.29.29 0 0 0-.147.148.346.346 0 0 0 .463.463.29.29 0 0 0 .148-.147zM52.661 127.06a.346.346 0 0 0 .464-.462.301.301 0 0 0-.148-.148.345.345 0 0 0-.464.463c.03.066.082.117.148.147z"/><path fill="#A1AEE5" fill-opacity=".4" d="M81.31 229.418a.346.346 0 0 0-.463-.464.293.293 0 0 0-.148.148.345.345 0 0 0 .463.463.295.295 0 0 0 .147-.147zm214.901 29.592a.346.346 0 0 0-.462-.464.298.298 0 0 0-.147.148.345.345 0 0 0 .462.464.298.298 0 0 0 .147-.148z"/><path fill="#A1AEE5" fill-opacity=".8" d="M550.504 195.659a.345.345 0 0 0-.462-.463.293.293 0 0 0-.147.147.345.345 0 0 0 .462.464.29.29 0 0 0 .147-.148z"/><path fill="#A1AEE5" fill-opacity=".4" d="M161.696 87.276a.346.346 0 0 0-.463-.464.295.295 0 0 0-.147.148.345.345 0 0 0 .462.464.297.297 0 0 0 .148-.148zm400.822 80.823a.345.345 0 0 0-.462-.463.298.298 0 0 0-.148.147.345.345 0 0 0 .463.464.298.298 0 0 0 .147-.148zM350.684 40.436a.345.345 0 0 0-.462-.464.3.3 0 0 0-.148.148.346.346 0 0 0 .463.464.296.296 0 0 0 .147-.148zM246.946 218.463a.347.347 0 0 0-.464-.464.304.304 0 0 0-.148.148.347.347 0 0 0 .464.464.304.304 0 0 0 .148-.148zm41.148-169.631a.345.345 0 0 0-.462-.462.3.3 0 0 0-.148.147.344.344 0 0 0 .463.463.295.295 0 0 0 .147-.148z"/><path fill="#A1AEE5" fill-opacity=".8" d="M1.483 58.923a.345.345 0 0 0-.462-.463.298.298 0 0 0-.148.148.346.346 0 0 0 .463.463.297.297 0 0 0 .147-.148z"/><path fill="#A1AEE5" fill-opacity=".4" d="M4.344 91.616a.346.346 0 0 0-.464-.464.298.298 0 0 0-.147.148.346.346 0 0 0 .463.464.298.298 0 0 0 .148-.148zm205.828-42.328a.346.346 0 0 0-.463-.464.293.293 0 0 0-.148.148.346.346 0 0 0 .464.463.295.295 0 0 0 .147-.147zM447.84 73.425a.345.345 0 0 0-.462-.464.295.295 0 0 0-.147.148.345.345 0 0 0 .462.464.295.295 0 0 0 .147-.148zm27.502-20.305a.345.345 0 0 0-.462-.464.296.296 0 0 0-.147.148.345.345 0 0 0 .462.463.295.295 0 0 0 .147-.147zM27.93 185.471a.346.346 0 0 0-.462-.464.3.3 0 0 0-.148.148.345.345 0 0 0 .463.464.3.3 0 0 0 .147-.148zm169.299-99.485a.346.346 0 0 0-.464-.464.301.301 0 0 0-.148.148.346.346 0 0 0 .464.464.3.3 0 0 0 .148-.148zm315.379 154.96a.345.345 0 0 0-.462-.464.304.304 0 0 0-.148.148.346.346 0 0 0 .463.464.298.298 0 0 0 .147-.148zm-363.405-99.734a.346.346 0 0 1 .464-.464c.066.03.117.081.148.148a.346.346 0 0 1-.464.463.298.298 0 0 1-.148-.147zm-68.836 71.539a.346.346 0 0 1 .463-.464.29.29 0 0 1 .147.148.345.345 0 0 1-.462.463.295.295 0 0 1-.148-.147zm-38.6-110.814a.345.345 0 0 1 .463.463.3.3 0 0 1-.148.147.346.346 0 0 1-.463-.463.3.3 0 0 1 .148-.147z"/><path fill="#A1AEE5" fill-opacity=".8" d="M529.35 48.72a.345.345 0 0 1 .462-.463c.066.03.117.081.148.147a.346.346 0 0 1-.463.464.295.295 0 0 1-.147-.148z"/><path fill="#A1AEE5" fill-opacity=".4" d="M422.25 27.499a.346.346 0 0 1 .463-.464.29.29 0 0 1 .147.148.345.345 0 0 1-.462.463.3.3 0 0 1-.148-.147zm-16.093 7.134a.346.346 0 0 1 .463-.464.3.3 0 0 1 .148.148.346.346 0 0 1-.464.464.295.295 0 0 1-.147-.148zM30.7 259.009a.346.346 0 0 1 .463-.464.301.301 0 0 1 .148.148.346.346 0 0 1-.464.464.301.301 0 0 1-.148-.148zm60.054-82.287a.346.346 0 0 1 .463-.464.301.301 0 0 1 .147.148.345.345 0 0 1-.463.464.3.3 0 0 1-.147-.148zM455.5 40.048a.346.346 0 0 1 .464-.464.3.3 0 0 1 .148.148.346.346 0 0 1-.464.464.301.301 0 0 1-.148-.148zM46.569 166.343a.345.345 0 0 1 .462-.463c.066.03.117.081.147.147a.345.345 0 0 1-.462.464.293.293 0 0 1-.148-.148zM247.936 34.988a.346.346 0 0 1 .464-.463.29.29 0 0 1 .147.148.346.346 0 0 1-.463.463.293.293 0 0 1-.148-.148zM212.084 74.48a.346.346 0 0 1 .463-.464.298.298 0 0 1 .147.148.345.345 0 0 1-.462.464.297.297 0 0 1-.148-.148zm64.231.193a.346.346 0 0 1 .463-.464c.067.03.118.082.148.148a.346.346 0 0 1-.463.464.294.294 0 0 1-.148-.148z"/><path fill="#A1AEE5" fill-opacity=".8" d="M409.709 263.613a.346.346 0 0 1 .464-.463c.066.03.117.081.148.147a.346.346 0 0 1-.464.464.296.296 0 0 1-.148-.148z"/><path fill="#A1AEE5" fill-opacity=".4" d="M86.559 84.695a.346.346 0 0 1 .462-.463c.066.03.117.081.148.147a.345.345 0 0 1-.463.464.298.298 0 0 1-.147-.148zm400.609 183.156a.346.346 0 0 1 .463-.464.298.298 0 0 1 .147.148.345.345 0 0 1-.462.463.294.294 0 0 1-.148-.147zm-23.453-8.679a.345.345 0 0 1 .462-.464c.066.03.117.081.148.148a.346.346 0 0 1-.463.463.293.293 0 0 1-.147-.147z"/><path fill="#A1AEE5" fill-opacity=".8" d="M536.399 66.656a.346.346 0 0 1 .463-.463.29.29 0 0 1 .148.147.346.346 0 0 1-.464.464.296.296 0 0 1-.147-.148z"/><path fill="#A1AEE5" fill-opacity=".4" d="M500.557 75.843a.346.346 0 0 1 .462-.463.3.3 0 0 1 .148.148.345.345 0 0 1-.463.463.296.296 0 0 1-.147-.148zm48.918 191.791a.346.346 0 0 1 .464-.464.298.298 0 0 1 .147.148.346.346 0 0 1-.463.464.296.296 0 0 1-.148-.148zm-9.141-176.907a.345.345 0 0 1 .463-.464.302.302 0 0 1 .147.148.346.346 0 0 1-.463.464.3.3 0 0 1-.147-.148zM43.557 217.308a.345.345 0 0 1 .462-.463c.066.03.117.081.148.147a.345.345 0 0 1-.463.464.3.3 0 0 1-.147-.148z"/><path fill="#A1AEE5" fill-opacity=".8" d="M484.925 97.633a.345.345 0 0 0-.463-.464.296.296 0 0 0-.147.148.345.345 0 0 0 .462.464.301.301 0 0 0 .148-.148z"/><path fill="#A1AEE5" fill-opacity=".4" d="M567.317 166.405a.346.346 0 0 0-.464-.463.298.298 0 0 0-.148.147.346.346 0 0 0 .464.464.296.296 0 0 0 .148-.148z"/><path fill="#A1AEE5" fill-opacity=".8" d="M536.938 120.082a.345.345 0 0 1 .462-.464.294.294 0 0 1 .147.148.345.345 0 0 1-.462.463.293.293 0 0 1-.147-.147zm-4.614 14.989a.345.345 0 0 1 .463-.463c.066.03.117.081.147.147a.346.346 0 0 1-.462.464.296.296 0 0 1-.148-.148z"/><path fill="#A1AEE5" fill-opacity=".4" d="M574.197 96.271a.345.345 0 0 1 .463-.464.298.298 0 0 1 .147.148.346.346 0 0 1-.462.464.301.301 0 0 1-.148-.148zm-86.363 32.031a.346.346 0 0 1 .464-.463c.066.03.117.081.148.147a.346.346 0 0 1-.464.464.296.296 0 0 1-.148-.148z"/><path fill="#A1AEE5" fill-opacity=".8" d="M477.406 161.079a.345.345 0 0 1 .463-.463c.066.03.117.081.147.147a.346.346 0 0 1-.462.464.304.304 0 0 1-.148-.148z"/><path fill="#A1AEE5" fill-opacity=".4" d="M535.406 225.653a.346.346 0 0 1 .463-.464.298.298 0 0 1 .147.148.346.346 0 0 1-.462.464.304.304 0 0 1-.148-.148z"/><path fill="#A1AEE5" fill-opacity=".8" d="M431.928 122.827a.346.346 0 0 0-.464-.464.298.298 0 0 0-.147.148.346.346 0 0 0 .463.464.296.296 0 0 0 .148-.148z"/><path fill="#A1AEE5" fill-opacity=".4" d="M418.397 212.618a.345.345 0 0 0-.462-.464.304.304 0 0 0-.148.148.346.346 0 0 0 .463.464.298.298 0 0 0 .147-.148zm-29.51-83.506a.346.346 0 0 0-.462-.464.304.304 0 0 0-.148.148.346.346 0 0 0 .463.464.298.298 0 0 0 .147-.148zm51.213 20.27a.346.346 0 0 0-.464-.463.29.29 0 0 0-.147.148.346.346 0 0 0 .463.463.293.293 0 0 0 .148-.148zm-169.765 40.175a.345.345 0 0 0-.463-.464.298.298 0 0 0-.147.148.346.346 0 0 0 .462.464.304.304 0 0 0 .148-.148zm115.291 49.026a.345.345 0 0 0-.463-.464.294.294 0 0 0-.147.148.345.345 0 0 0 .462.463.298.298 0 0 0 .148-.147zm107.585 11.575a.345.345 0 0 0-.462-.463.293.293 0 0 0-.147.147.345.345 0 0 0 .462.464.29.29 0 0 0 .147-.148z"/><path fill="#A1AEE5" fill-opacity=".8" d="M238.548 124.189a.345.345 0 0 0-.463-.464.29.29 0 0 0-.147.148.345.345 0 0 0 .462.463.298.298 0 0 0 .148-.147z"/><path fill="#A1AEE5" fill-opacity=".4" d="M235.133 215.448a.346.346 0 0 0-.462-.464.304.304 0 0 0-.148.148.346.346 0 0 0 .463.464.298.298 0 0 0 .147-.148zm123.953-80.069a.345.345 0 0 0-.462-.462.293.293 0 0 0-.147.147.344.344 0 0 0 .462.463.298.298 0 0 0 .147-.148zm-46.931 123.963a.346.346 0 0 0-.463-.463.293.293 0 0 0-.147.147.345.345 0 0 0 .462.464.293.293 0 0 0 .148-.148zm131.202-87.951a.345.345 0 0 0-.464.462c.03.066.081.117.148.148a.346.346 0 0 0 .463-.463.293.293 0 0 0-.147-.147zm-245.878-6.723a.346.346 0 0 0-.462-.464.304.304 0 0 0-.148.148.346.346 0 0 0 .463.464.298.298 0 0 0 .147-.148zm27.5-20.305a.345.345 0 0 0-.462-.464.304.304 0 0 0-.148.148.346.346 0 0 0 .463.464.298.298 0 0 0 .147-.148zm192.018 112.271a.346.346 0 0 0-.464-.463.298.298 0 0 0-.148.147.346.346 0 0 0 .464.464.296.296 0 0 0 .148-.148z"/><path fill="#A1AEE5" fill-opacity=".8" d="M278.988 139.964a.345.345 0 0 1 .463-.464.29.29 0 0 1 .147.148.345.345 0 0 1-.462.463.298.298 0 0 1-.148-.147z"/><path fill="#A1AEE5" fill-opacity=".4" d="M444.254 204.537a.346.346 0 0 1 .463-.464.302.302 0 0 1 .147.148.346.346 0 0 1-.463.464.302.302 0 0 1-.147-.148z"/><path fill="#A1AEE5" fill-opacity=".8" d="M428.209 185.247a.346.346 0 0 1 .463-.464.302.302 0 0 1 .147.148.346.346 0 0 1-.463.464.302.302 0 0 1-.147-.148z"/><path fill="#A1AEE5" fill-opacity=".4" d="M457.824 234.467a.346.346 0 0 1 .463-.464.298.298 0 0 1 .147.148.345.345 0 0 1-.462.464.304.304 0 0 1-.148-.148z"/><path fill="#A1AEE5" fill-opacity=".8" d="M488.528 210.971a.346.346 0 0 1-.463-.464.296.296 0 0 1 .148-.148.346.346 0 0 1 .463.464.296.296 0 0 1-.148.148z"/><path fill="#A1AEE5" fill-opacity=".4" d="M471.956 189.022a.346.346 0 0 1-.464-.463.302.302 0 0 1 .148-.147.346.346 0 0 1 .464.463.302.302 0 0 1-.148.147zm-266.819-57.731a.346.346 0 0 1 .464-.464.294.294 0 0 1 .147.148.345.345 0 0 1-.463.463.298.298 0 0 1-.148-.147zm127.449 96.398a.344.344 0 0 1 .462-.463.296.296 0 0 1 .148.148.345.345 0 0 1-.463.462.296.296 0 0 1-.147-.147z"/><path fill="#A1AEE5" fill-opacity=".8" d="M286.035 157.899a.347.347 0 0 1 .464-.464.304.304 0 0 1 .148.148.346.346 0 0 1-.464.464.304.304 0 0 1-.148-.148z"/><path fill="#A1AEE5" fill-opacity=".4" d="M250.194 167.087a.345.345 0 0 1 .462-.464.29.29 0 0 1 .147.148.344.344 0 0 1-.462.463.293.293 0 0 1-.147-.147zm39.779 14.883a.345.345 0 0 1 .462-.464.304.304 0 0 1 .148.148.346.346 0 0 1-.463.464.298.298 0 0 1-.147-.148zm-75.403-2.628a.346.346 0 0 1 .463-.463.296.296 0 0 1 .147.147.344.344 0 0 1-.462.463.302.302 0 0 1-.148-.147zm128.065 72.534a.346.346 0 0 1 .464-.464c.066.03.117.081.148.148a.346.346 0 0 1-.464.463.298.298 0 0 1-.148-.147zm172.218-81.239a.345.345 0 0 1-.464-.462.3.3 0 0 1 .148-.148.346.346 0 0 1 .463.463.293.293 0 0 1-.147.147zm-456.21 23.005a.345.345 0 0 1 .462-.464.3.3 0 0 1 .148.148.346.346 0 0 1-.463.464.3.3 0 0 1-.147-.148zm136.865 74.22a.345.345 0 0 1 .462-.464.304.304 0 0 1 .148.148.346.346 0 0 1-.463.464.298.298 0 0 1-.147-.148zm-79.559-54.371a.345.345 0 0 1 .463-.463c.066.03.117.081.147.147a.346.346 0 0 1-.462.464.296.296 0 0 1-.148-.148zm78.791-1.418a.345.345 0 0 1 .463-.463c.066.03.117.081.147.147a.346.346 0 0 1-.462.464.296.296 0 0 1-.148-.148zm-45.855 41.077a.346.346 0 0 1 .464-.464.304.304 0 0 1 .148.148.347.347 0 0 1-.464.464.304.304 0 0 1-.148-.148zM395.626 56.097a.346.346 0 0 0-.463-.464.295.295 0 0 0-.147.148.345.345 0 0 0 .462.464.301.301 0 0 0 .148-.148z"/><path fill="#A1AEE5" fill-opacity=".8" d="M375.198 116.698a.346.346 0 0 0-.463-.463.293.293 0 0 0-.147.147.345.345 0 0 0 .462.464.293.293 0 0 0 .148-.148z"/><path fill="#A1AEE5" fill-opacity=".4" d="M310.58 84.68a.346.346 0 0 1 .463-.464c.066.03.117.081.147.147a.345.345 0 0 1-.462.464.301.301 0 0 1-.148-.148zm55.512 2.6a.346.346 0 0 1 .464-.463.3.3 0 0 1 .148.148.346.346 0 0 1-.464.464.301.301 0 0 1-.148-.148zm33.689 19.205a.345.345 0 0 1 .463-.464.29.29 0 0 1 .147.148.345.345 0 0 1-.462.463.298.298 0 0 1-.148-.147z"/><path fill="#A1AEE5" fill-opacity=".8" d="M333.732 103.08a.346.346 0 0 1 .463-.464.298.298 0 0 1 .147.148.345.345 0 0 1-.462.464.304.304 0 0 1-.148-.148z"/><path fill="#A1AEE5" fill-opacity=".4" d="M397.059 81.29a.345.345 0 0 1 .462-.463.3.3 0 0 1 .148.148.346.346 0 0 1-.463.463.295.295 0 0 1-.147-.147zm-46.623-14.711a.346.346 0 0 1 .464-.464c.066.03.117.082.147.148a.346.346 0 0 1-.463.463.293.293 0 0 1-.148-.147z"/><path fill="#A1AEE5" fill-opacity=".8" d="M39.075 240.988a.346.346 0 0 1 .463-.463c.067.03.117.081.148.147a.346.346 0 0 1-.464.464.293.293 0 0 1-.148-.148z"/><path fill="#A1AEE5" fill-opacity=".4" d="M125.227 45.87a.345.345 0 0 1 .462-.462.3.3 0 0 1 .148.147.344.344 0 0 1-.463.463.295.295 0 0 1-.147-.148zM52.123 33.237a.346.346 0 0 1 .464-.463c.066.03.117.081.148.148a.346.346 0 0 1-.464.463.298.298 0 0 1-.148-.148zm-.289 26.945a.345.345 0 0 1 .462-.464.3.3 0 0 1 .148.148.346.346 0 0 1-.463.464.297.297 0 0 1-.147-.148zm113.031 4.767a.345.345 0 0 1 .463-.464c.066.03.117.082.147.148a.346.346 0 0 1-.462.464.3.3 0 0 1-.148-.148zM2.292 154.145a.346.346 0 0 0-.463-.464.297.297 0 0 0-.147.148.345.345 0 0 0 .462.463.295.295 0 0 0 .148-.147zm244.581 17.703a.345.345 0 0 0-.463-.463.298.298 0 0 0-.148.147.346.346 0 0 0 .464.464.294.294 0 0 0 .147-.148zm-52.798-29.18a.346.346 0 0 0-.463-.464.298.298 0 0 0-.147.148.345.345 0 0 0 .462.464.304.304 0 0 0 .148-.148zM122.362 2.463a.345.345 0 0 0-.462-.464.297.297 0 0 0-.148.148.346.346 0 0 0 .463.464.295.295 0 0 0 .147-.148z"/><path fill="#A1AEE5" fill-opacity=".8" d="M454.184 184.204a.346.346 0 0 0-.464-.463.293.293 0 0 0-.147.147.346.346 0 0 0 .463.464.3.3 0 0 0 .148-.148z"/><path fill="#A1AEE5" fill-opacity=".4" d="M514.766 201.651a.345.345 0 0 0-.462-.464.296.296 0 0 0-.148.148.346.346 0 0 0 .463.463.293.293 0 0 0 .147-.147zM172.286 65.044a.346.346 0 0 0-.463-.464.295.295 0 0 0-.147.148.345.345 0 0 0 .462.463.301.301 0 0 0 .148-.147zM344.557 166.5a.346.346 0 0 0-.464-.464.298.298 0 0 0-.147.148.346.346 0 0 0 .463.464.296.296 0 0 0 .148-.148zm-92.349-26.527a.345.345 0 0 0-.463-.464.298.298 0 0 0-.147.148.346.346 0 0 0 .462.464.304.304 0 0 0 .148-.148zM78.897 180.648a.346.346 0 0 0-.463-.464.293.293 0 0 0-.147.148.345.345 0 0 0 .463.463.295.295 0 0 0 .147-.147z"/><path fill="#A1AEE5" fill-opacity=".8" d="M173.647 203.27a.346.346 0 0 0-.462-.464.296.296 0 0 0-.148.148.345.345 0 0 0 .463.463.293.293 0 0 0 .147-.147z"/><path fill="#A1AEE5" fill-opacity=".4" d="M11.329 103.275a.345.345 0 0 0-.463-.464.293.293 0 0 0-.147.148.345.345 0 0 0 .462.463.295.295 0 0 0 .148-.147zm5.707-79.086a.346.346 0 0 0-.464-.464.298.298 0 0 0-.148.148.346.346 0 0 0 .464.463.298.298 0 0 0 .148-.147zM12.27 60.277a.346.346 0 0 0-.462-.464.297.297 0 0 0-.148.148.345.345 0 0 0 .463.464.298.298 0 0 0 .147-.148z"/><path fill="#A1AEE5" fill-opacity=".8" d="M73.483 206.114a.345.345 0 0 0-.463-.463.295.295 0 0 0-.147.147.345.345 0 0 0 .463.464.293.293 0 0 0 .147-.148z"/><path fill="#A1AEE5" fill-opacity=".4" d="M166.354 104.353a.346.346 0 0 0-.464-.464.3.3 0 0 0-.148.148.346.346 0 0 0 .464.463.298.298 0 0 0 .148-.147z"/><path fill="#A1AEE5" fill-opacity=".8" d="M143.469 77.046a.346.346 0 0 0-.464-.463.295.295 0 0 0-.147.148.346.346 0 0 0 .463.463.293.293 0 0 0 .148-.148zM52.661 27.06a.346.346 0 0 0 .464-.462.298.298 0 0 0-.148-.148.345.345 0 0 0-.464.463c.03.066.082.117.148.147z"/><path fill="#A1AEE5" fill-opacity=".4" d="M81.31 129.418a.346.346 0 0 0-.463-.464.293.293 0 0 0-.148.148.345.345 0 0 0 .463.463.295.295 0 0 0 .147-.147zm214.901 29.592a.346.346 0 0 0-.462-.464.298.298 0 0 0-.147.148.345.345 0 0 0 .462.464.298.298 0 0 0 .147-.148zm94.649 52.429a.345.345 0 0 0-.463-.462.296.296 0 0 0-.147.147.345.345 0 0 0 .463.463.302.302 0 0 0 .147-.148z"/><path fill="#A1AEE5" fill-opacity=".8" d="M344.557 190.332a.346.346 0 0 0-.464-.464.298.298 0 0 0-.147.148.346.346 0 0 0 .463.464.296.296 0 0 0 .148-.148zM550.504 95.66a.345.345 0 0 0-.462-.464.295.295 0 0 0-.147.147.345.345 0 0 0 .462.464.295.295 0 0 0 .147-.148z"/><path fill="#A1AEE5" fill-opacity=".4" d="M562.518 68.1a.346.346 0 0 0-.462-.465.301.301 0 0 0-.148.148.345.345 0 0 0 .463.464.295.295 0 0 0 .147-.148zm-315.572 50.363a.347.347 0 0 0-.464-.464.304.304 0 0 0-.148.148.347.347 0 0 0 .464.464.304.304 0 0 0 .148-.148zm-19.922 99.491a.344.344 0 0 0-.462-.463.298.298 0 0 0-.148.147.346.346 0 0 0 .463.464.298.298 0 0 0 .147-.148zM27.93 85.47a.346.346 0 0 0-.462-.463.298.298 0 0 0-.148.148.345.345 0 0 0 .463.464.298.298 0 0 0 .147-.148zm484.678 55.476a.345.345 0 0 0-.462-.464.304.304 0 0 0-.148.148.346.346 0 0 0 .463.464.298.298 0 0 0 .147-.148zM149.203 41.212a.346.346 0 0 1 .464-.464c.066.03.117.081.148.148a.346.346 0 0 1-.464.463.3.3 0 0 1-.148-.147zM366.416 181.48a.347.347 0 0 1 .464-.464.304.304 0 0 1 .148.148.347.347 0 0 1-.464.464.304.304 0 0 1-.148-.148zm-257.387-10.229a.346.346 0 0 1 .463-.464.29.29 0 0 1 .147.148.344.344 0 0 1-.462.463.298.298 0 0 1-.148-.147zm193.381 11.591a.347.347 0 0 1 .464-.464.304.304 0 0 1 .148.148.346.346 0 0 1-.464.464.304.304 0 0 1-.148-.148zm87.838 9.532a.346.346 0 0 1 .463-.463.298.298 0 0 1 .147.148.344.344 0 0 1-.462.462.298.298 0 0 1-.148-.147zM80.367 112.751a.346.346 0 0 1 .463-.464.29.29 0 0 1 .147.148.345.345 0 0 1-.462.463.295.295 0 0 1-.148-.147zM41.767 1.937a.345.345 0 0 1 .463.463.298.298 0 0 1-.148.147.346.346 0 0 1-.463-.463.298.298 0 0 1 .148-.147zM30.7 159.009a.346.346 0 0 1 .463-.464.301.301 0 0 1 .148.148.346.346 0 0 1-.464.464.301.301 0 0 1-.148-.148zm60.054-82.287a.346.346 0 0 1 .463-.464c.066.03.117.082.147.148a.345.345 0 0 1-.463.464.298.298 0 0 1-.147-.148zM46.569 66.343a.346.346 0 0 1 .462-.463c.066.03.117.081.147.147a.345.345 0 0 1-.462.464.298.298 0 0 1-.148-.148zm117.972 107.509a.346.346 0 0 1 .464-.464.304.304 0 0 1 .148.148.346.346 0 0 1-.464.463.298.298 0 0 1-.148-.147zm116.078 16.48a.347.347 0 0 1 .464-.464.304.304 0 0 1 .148.148.346.346 0 0 1-.464.464.304.304 0 0 1-.148-.148z"/><path fill="#A1AEE5" fill-opacity=".8" d="M326.922 210.078a.346.346 0 0 1 .464-.463c.066.03.117.081.148.147a.346.346 0 0 1-.464.464.3.3 0 0 1-.148-.148zm82.787-46.465a.346.346 0 0 1 .464-.463c.066.03.117.081.148.147a.346.346 0 0 1-.464.464.296.296 0 0 1-.148-.148zm-164.496 30.123a.346.346 0 0 1 .464-.463c.066.03.117.081.148.148a.346.346 0 0 1-.464.463.296.296 0 0 1-.148-.148z"/><path fill="#A1AEE5" fill-opacity=".4" d="M273.129 217.568a.346.346 0 0 1 .463-.463c.066.03.116.081.147.148a.345.345 0 0 1-.463.463.294.294 0 0 1-.147-.148zm214.039-49.717a.346.346 0 0 1 .463-.464.298.298 0 0 1 .147.148.345.345 0 0 1-.462.463.294.294 0 0 1-.148-.147zm-23.453-8.679a.345.345 0 0 1 .462-.464c.066.03.117.081.148.148a.346.346 0 0 1-.463.463.293.293 0 0 1-.147-.147zm85.76 8.462a.346.346 0 0 1 .464-.464.298.298 0 0 1 .147.148.346.346 0 0 1-.463.464.296.296 0 0 1-.148-.148zM43.557 117.308a.345.345 0 0 1 .462-.463c.066.03.117.081.148.147a.345.345 0 0 1-.463.464.3.3 0 0 1-.147-.148zm377.332 73.024a.346.346 0 0 1 .464-.464.298.298 0 0 1 .147.148.346.346 0 0 1-.463.464.3.3 0 0 1-.148-.148z"/><path fill="#A1AEE5" fill-opacity=".8" d="M573.314 203.391a.345.345 0 0 1 .463-.464.298.298 0 0 1 .147.148.346.346 0 0 1-.462.464.304.304 0 0 1-.148-.148z"/><path fill="#A1AEE5" fill-opacity=".4" d="M567.317 66.405a.346.346 0 0 0-.464-.463.301.301 0 0 0-.148.148.346.346 0 0 0 .464.463.301.301 0 0 0 .148-.148z"/><path fill="#A1AEE5" fill-opacity=".8" d="M536.938 20.082a.345.345 0 0 1 .462-.464c.066.03.117.082.147.148a.345.345 0 0 1-.462.464.296.296 0 0 1-.147-.148zm-4.614 14.989a.345.345 0 0 1 .463-.463.29.29 0 0 1 .147.148.346.346 0 0 1-.462.463.301.301 0 0 1-.148-.148z"/><path fill="#A1AEE5" fill-opacity=".4" d="M487.834 28.302a.346.346 0 0 1 .464-.463.3.3 0 0 1 .148.147.346.346 0 0 1-.464.464.301.301 0 0 1-.148-.148z"/><path fill="#A1AEE5" fill-opacity=".8" d="M477.406 61.08a.345.345 0 0 1 .463-.465.298.298 0 0 1 .147.148.346.346 0 0 1-.462.464.301.301 0 0 1-.148-.148z"/><path fill="#A1AEE5" fill-opacity=".4" d="M535.406 125.653a.346.346 0 0 1 .463-.464.298.298 0 0 1 .147.148.346.346 0 0 1-.462.464.304.304 0 0 1-.148-.148z"/><path fill="#A1AEE5" fill-opacity=".8" d="M431.928 22.827a.346.346 0 0 0-.464-.464.295.295 0 0 0-.147.148.346.346 0 0 0 .463.464.294.294 0 0 0 .148-.148z"/><path fill="#A1AEE5" fill-opacity=".4" d="M418.397 112.618a.345.345 0 0 0-.462-.464.304.304 0 0 0-.148.148.346.346 0 0 0 .463.464.298.298 0 0 0 .147-.148zm-29.51-83.506a.346.346 0 0 0-.462-.464.301.301 0 0 0-.148.148.345.345 0 0 0 .463.464.295.295 0 0 0 .147-.148zM440.1 49.383a.346.346 0 0 0-.464-.464.296.296 0 0 0-.147.148.346.346 0 0 0 .463.463.297.297 0 0 0 .148-.148zM270.335 89.557a.345.345 0 0 0-.463-.464.296.296 0 0 0-.147.148.346.346 0 0 0 .462.464.301.301 0 0 0 .148-.148zm115.291 49.026a.345.345 0 0 0-.463-.464.294.294 0 0 0-.147.148.345.345 0 0 0 .462.463.298.298 0 0 0 .148-.147zm107.585 11.575a.345.345 0 0 0-.462-.463.293.293 0 0 0-.147.147.345.345 0 0 0 .462.464.29.29 0 0 0 .147-.148z"/><path fill="#A1AEE5" fill-opacity=".8" d="M238.548 24.189a.345.345 0 0 0-.463-.464.295.295 0 0 0-.147.148.345.345 0 0 0 .462.463.301.301 0 0 0 .148-.147z"/><path fill="#A1AEE5" fill-opacity=".4" d="M235.133 115.448a.346.346 0 0 0-.462-.464.304.304 0 0 0-.148.148.346.346 0 0 0 .463.464.298.298 0 0 0 .147-.148zM359.086 35.38a.345.345 0 0 0-.462-.463.295.295 0 0 0-.147.147.344.344 0 0 0 .462.463.295.295 0 0 0 .147-.148zm-46.931 123.962a.346.346 0 0 0-.463-.463.293.293 0 0 0-.147.147.345.345 0 0 0 .462.464.293.293 0 0 0 .148-.148zM443.357 71.39a.345.345 0 0 0-.464.463c.03.067.081.117.148.148a.345.345 0 0 0 .463-.463.295.295 0 0 0-.147-.147zm-245.878-6.722a.346.346 0 0 0-.462-.464.301.301 0 0 0-.148.148.345.345 0 0 0 .463.464.296.296 0 0 0 .147-.148zm27.5-20.305a.345.345 0 0 0-.462-.464.301.301 0 0 0-.148.148.346.346 0 0 0 .463.464.295.295 0 0 0 .147-.148zm192.018 112.271a.346.346 0 0 0-.464-.463.298.298 0 0 0-.148.147.346.346 0 0 0 .464.464.296.296 0 0 0 .148-.148z"/><path fill="#A1AEE5" fill-opacity=".8" d="M278.988 39.964a.345.345 0 0 1 .463-.464.29.29 0 0 1 .147.148.346.346 0 0 1-.462.463.301.301 0 0 1-.148-.147z"/><path fill="#A1AEE5" fill-opacity=".4" d="M444.254 104.537a.346.346 0 0 1 .463-.464.302.302 0 0 1 .147.148.346.346 0 0 1-.463.464.302.302 0 0 1-.147-.148z"/><path fill="#A1AEE5" fill-opacity=".8" d="M428.209 85.247a.345.345 0 0 1 .463-.463.3.3 0 0 1 .147.147.346.346 0 0 1-.463.464.3.3 0 0 1-.147-.148z"/><path fill="#A1AEE5" fill-opacity=".4" d="M457.824 134.467a.346.346 0 0 1 .463-.464.298.298 0 0 1 .147.148.345.345 0 0 1-.462.464.304.304 0 0 1-.148-.148z"/><path fill="#A1AEE5" fill-opacity=".8" d="M488.528 110.971a.346.346 0 0 1-.463-.464.296.296 0 0 1 .148-.148.346.346 0 0 1 .463.464.296.296 0 0 1-.148.148z"/><path fill="#A1AEE5" fill-opacity=".4" d="M471.956 89.022a.345.345 0 0 1-.464-.463.3.3 0 0 1 .148-.147.346.346 0 0 1 .464.462.3.3 0 0 1-.148.148zM205.137 31.29a.346.346 0 0 1 .464-.463.29.29 0 0 1 .147.148.346.346 0 0 1-.463.463.3.3 0 0 1-.148-.147zm127.449 96.399a.344.344 0 0 1 .462-.463.296.296 0 0 1 .148.148.345.345 0 0 1-.463.462.296.296 0 0 1-.147-.147z"/><path fill="#A1AEE5" fill-opacity=".8" d="M286.035 57.9a.346.346 0 0 1 .464-.465.3.3 0 0 1 .148.148.346.346 0 0 1-.464.464.3.3 0 0 1-.148-.148z"/><path fill="#A1AEE5" fill-opacity=".4" d="M250.194 67.087a.345.345 0 0 1 .462-.464.29.29 0 0 1 .147.148.345.345 0 0 1-.462.463.295.295 0 0 1-.147-.147zm39.779 14.883a.345.345 0 0 1 .462-.464.3.3 0 0 1 .148.148.346.346 0 0 1-.463.464.295.295 0 0 1-.147-.148zm-75.403-2.628a.346.346 0 0 1 .463-.463c.066.03.117.081.147.147a.344.344 0 0 1-.462.463.301.301 0 0 1-.148-.147zm128.065 72.534a.346.346 0 0 1 .464-.464c.066.03.117.081.148.148a.346.346 0 0 1-.464.463.298.298 0 0 1-.148-.147zm172.218-81.239a.345.345 0 0 1-.464-.462.297.297 0 0 1 .148-.148.345.345 0 0 1 .463.463.295.295 0 0 1-.147.147zM58.643 93.642a.345.345 0 0 1 .462-.463c.066.03.117.081.148.147a.346.346 0 0 1-.463.464.298.298 0 0 1-.147-.148zm139.588 99.414a.345.345 0 0 1 .462-.464.298.298 0 0 1 .147.148.346.346 0 0 1-.462.464.298.298 0 0 1-.147-.148z"/><path fill="#A1AEE5" fill-opacity=".8" d="M132.182 189.651a.344.344 0 0 1 .462-.463c.066.03.117.081.148.148a.346.346 0 0 1-.463.463.29.29 0 0 1-.147-.148z"/><path fill="#A1AEE5" fill-opacity=".4" d="M195.508 167.862a.345.345 0 0 1 .462-.464.304.304 0 0 1 .148.148.346.346 0 0 1-.463.464.298.298 0 0 1-.147-.148zm-79.559-54.371a.345.345 0 0 1 .463-.463c.066.03.117.081.147.147a.346.346 0 0 1-.462.464.296.296 0 0 1-.148-.148zm78.791-1.418a.345.345 0 0 1 .463-.463c.066.03.117.081.147.147a.346.346 0 0 1-.462.464.296.296 0 0 1-.148-.148zm-45.855 41.077a.346.346 0 0 1 .464-.464.304.304 0 0 1 .148.148.347.347 0 0 1-.464.464.304.304 0 0 1-.148-.148z"/><path fill="#A1AEE5" fill-opacity=".8" d="M375.198 16.698a.346.346 0 0 0-.463-.463.295.295 0 0 0-.147.147.345.345 0 0 0 .462.464.298.298 0 0 0 .148-.148z"/><path fill="#A1AEE5" fill-opacity=".4" d="M399.781 6.484a.345.345 0 0 1 .463-.463.29.29 0 0 1 .147.148.346.346 0 0 1-.462.463.301.301 0 0 1-.148-.147z"/><path fill="#A1AEE5" fill-opacity=".8" d="M333.732 3.08a.345.345 0 0 1 .463-.464.298.298 0 0 1 .147.148.345.345 0 0 1-.462.464.301.301 0 0 1-.148-.148zM39.075 140.988a.346.346 0 0 1 .463-.463c.067.03.117.081.148.147a.346.346 0 0 1-.464.464.293.293 0 0 1-.148-.148z"/></g><rect width="574.02" height="269" x=".5" y=".5" stroke="#A1AEE5" stroke-opacity=".16" rx="21.5"/><defs><filter id="b" width="963.923" height="553.609" x="-160.333" y="-308.804" color-interpolation-filters="sRGB" filterUnits="userSpaceOnUse"><feFlood flood-opacity="0" result="BackgroundImageFix"/><feBlend in="SourceGraphic" in2="BackgroundImageFix" result="shape"/><feGaussianBlur result="effect1_foregroundBlur_189_1344" stdDeviation="84.902"/></filter><filter id="d" width="321.818" height="321.818" x="-145.167" y="-16.608" color-interpolation-filters="sRGB" filterUnits="userSpaceOnUse"><feFlood flood-opacity="0" result="BackgroundImageFix"/><feBlend in="SourceGraphic" in2="BackgroundImageFix" result="shape"/><feGaussianBlur result="effect1_foregroundBlur_189_1344" stdDeviation="50.521"/></filter><filter id="g" width="321.818" height="321.818" x="384.833" y="-16.608" color-interpolation-filters="sRGB" filterUnits="userSpaceOnUse"><feFlood flood-opacity="0" result="BackgroundImageFix"/><feBlend in="SourceGraphic" in2="BackgroundImageFix" result="shape"/><feGaussianBlur result="effect1_foregroundBlur_189_1344" stdDeviation="50.521"/></filter><filter id="j" width="441.639" height="446.395" x="308.496" y="-127.071" color-interpolation-filters="sRGB" filterUnits="userSpaceOnUse"><feFlood flood-opacity="0" result="BackgroundImageFix"/><feBlend in="SourceGraphic" in2="BackgroundImageFix" result="shape"/><feGaussianBlur result="effect1_foregroundBlur_189_1344" stdDeviation="24.37"/></filter><filter id="l" width="441.639" height="446.395" x="212.164" y="-122.197" color-interpolation-filters="sRGB" filterUnits="userSpaceOnUse"><feFlood flood-opacity="0" result="BackgroundImageFix"/><feBlend in="SourceGraphic" in2="BackgroundImageFix" result="shape"/><feGaussianBlur result="effect1_foregroundBlur_189_1344" stdDeviation="24.37"/></filter><filter id="n" width="441.639" height="446.395" x="175.179" y="-171.796" color-interpolation-filters="sRGB" filterUnits="userSpaceOnUse"><feFlood flood-opacity="0" result="BackgroundImageFix"/><feBlend in="SourceGraphic" in2="BackgroundImageFix" result="shape"/><feGaussianBlur result="effect1_foregroundBlur_189_1344" stdDeviation="24.37"/></filter><filter id="p" width="441.639" height="446.395" x="169.732" y="-152.014" color-interpolation-filters="sRGB" filterUnits="userSpaceOnUse"><feFlood flood-opacity="0" result="BackgroundImageFix"/><feBlend in="SourceGraphic" in2="BackgroundImageFix" result="shape"/><feGaussianBlur result="effect1_foregroundBlur_189_1344" stdDeviation="24.37"/></filter><filter id="r" width="441.639" height="446.395" x="73.4" y="-147.14" color-interpolation-filters="sRGB" filterUnits="userSpaceOnUse"><feFlood flood-opacity="0" result="BackgroundImageFix"/><feBlend in="SourceGraphic" in2="BackgroundImageFix" result="shape"/><feGaussianBlur result="effect1_foregroundBlur_189_1344" stdDeviation="24.37"/></filter><filter id="t" width="441.639" height="446.395" x="36.416" y="-196.739" color-interpolation-filters="sRGB" filterUnits="userSpaceOnUse"><feFlood flood-opacity="0" result="BackgroundImageFix"/><feBlend in="SourceGraphic" in2="BackgroundImageFix" result="shape"/><feGaussianBlur result="effect1_foregroundBlur_189_1344" stdDeviation="24.37"/></filter><filter id="v" width="441.639" height="446.395" x="522.164" y="-122.197" color-interpolation-filters="sRGB" filterUnits="userSpaceOnUse"><feFlood flood-opacity="0" result="BackgroundImageFix"/><feBlend in="SourceGraphic" in2="BackgroundImageFix" result="shape"/><feGaussianBlur result="effect1_foregroundBlur_189_1344" stdDeviation="24.37"/></filter><filter id="x" width="441.639" height="446.395" x="485.179" y="-171.796" color-interpolation-filters="sRGB" filterUnits="userSpaceOnUse"><feFlood flood-opacity="0" result="BackgroundImageFix"/><feBlend in="SourceGraphic" in2="BackgroundImageFix" result="shape"/><feGaussianBlur result="effect1_foregroundBlur_189_1344" stdDeviation="24.37"/></filter><filter id="z" width="441.639" height="446.395" x="479.732" y="-152.014" color-interpolation-filters="sRGB" filterUnits="userSpaceOnUse"><feFlood flood-opacity="0" result="BackgroundImageFix"/><feBlend in="SourceGraphic" in2="BackgroundImageFix" result="shape"/><feGaussianBlur result="effect1_foregroundBlur_189_1344" stdDeviation="24.37"/></filter><filter id="B" width="441.639" height="446.395" x="383.4" y="-147.14" color-interpolation-filters="sRGB" filterUnits="userSpaceOnUse"><feFlood flood-opacity="0" result="BackgroundImageFix"/><feBlend in="SourceGraphic" in2="BackgroundImageFix" result="shape"/><feGaussianBlur result="effect1_foregroundBlur_189_1344" stdDeviation="24.37"/></filter><filter id="D" width="441.639" height="446.395" x="346.415" y="-196.739" color-interpolation-filters="sRGB" filterUnits="userSpaceOnUse"><feFlood flood-opacity="0" result="BackgroundImageFix"/><feBlend in="SourceGraphic" in2="BackgroundImageFix" result="shape"/><feGaussianBlur result="effect1_foregroundBlur_189_1344" stdDeviation="24.37"/></filter><linearGradient id="c" x1="39.752" x2="597.108" y1="-32.605" y2="-32.605" gradientUnits="userSpaceOnUse"><stop offset=".069" stop-color="#74BFFF"/><stop offset=".233" stop-color="#A7D6F1"/><stop offset=".367" stop-color="#FAC4B8"/><stop offset=".547" stop-color="#FFAF96"/><stop offset=".719" stop-color="#FF9BAB"/><stop offset=".854" stop-color="#F09DF0"/><stop offset="1" stop-color="#C78FFF"/></linearGradient><linearGradient id="k" x1="695.618" x2="492.889" y1="-72.553" y2="130.175" gradientUnits="userSpaceOnUse"><stop stop-color="#fff"/><stop offset="1" stop-color="#D3D8DF"/></linearGradient><linearGradient id="m" x1="599.286" x2="396.557" y1="-67.68" y2="135.049" gradientUnits="userSpaceOnUse"><stop stop-color="#fff"/><stop offset="1" stop-color="#D3D8DF"/></linearGradient><linearGradient id="o" x1="562.301" x2="359.572" y1="-117.279" y2="85.45" gradientUnits="userSpaceOnUse"><stop stop-color="#fff"/><stop offset="1" stop-color="#D3D8DF"/></linearGradient><linearGradient id="q" x1="556.854" x2="354.125" y1="-97.497" y2="105.232" gradientUnits="userSpaceOnUse"><stop stop-color="#fff"/><stop offset="1" stop-color="#D3D8DF"/></linearGradient><linearGradient id="s" x1="460.522" x2="257.793" y1="-92.623" y2="110.106" gradientUnits="userSpaceOnUse"><stop stop-color="#fff"/><stop offset="1" stop-color="#D3D8DF"/></linearGradient><linearGradient id="u" x1="423.538" x2="220.809" y1="-142.222" y2="60.507" gradientUnits="userSpaceOnUse"><stop stop-color="#fff"/><stop offset="1" stop-color="#D3D8DF"/></linearGradient><linearGradient id="w" x1="909.286" x2="706.557" y1="-67.68" y2="135.049" gradientUnits="userSpaceOnUse"><stop stop-color="#fff"/><stop offset="1" stop-color="#D3D8DF"/></linearGradient><linearGradient id="y" x1="872.301" x2="669.572" y1="-117.279" y2="85.45" gradientUnits="userSpaceOnUse"><stop stop-color="#fff"/><stop offset="1" stop-color="#D3D8DF"/></linearGradient><linearGradient id="A" x1="866.854" x2="664.125" y1="-97.497" y2="105.232" gradientUnits="userSpaceOnUse"><stop stop-color="#fff"/><stop offset="1" stop-color="#D3D8DF"/></linearGradient><linearGradient id="C" x1="770.522" x2="567.793" y1="-92.623" y2="110.106" gradientUnits="userSpaceOnUse"><stop stop-color="#fff"/><stop offset="1" stop-color="#D3D8DF"/></linearGradient><linearGradient id="E" x1="733.538" x2="530.809" y1="-142.222" y2="60.507" gradientUnits="userSpaceOnUse"><stop stop-color="#fff"/><stop offset="1" stop-color="#D3D8DF"/></linearGradient><radialGradient id="e" cx="0" cy="0" r="1" gradientTransform="matrix(0 178.434 -298.948 0 402.982 46.75)" gradientUnits="userSpaceOnUse"><stop stop-color="#D9D9D9" stop-opacity=".2"/><stop offset=".802" stop-color="#D9D9D9" stop-opacity="0"/></radialGradient><radialGradient id="h" cx="0" cy="0" r="1" gradientTransform="matrix(0 178.434 -298.948 0 932.984 46.742)" gradientUnits="userSpaceOnUse"><stop stop-color="#D9D9D9" stop-opacity=".2"/><stop offset=".802" stop-color="#D9D9D9" stop-opacity="0"/></radialGradient><clipPath id="a"><rect width="575.02" height="270" fill="#fff" rx="22"/></clipPath></defs></svg>